<mxfile host="app.diagrams.net" agent="Mozilla/5.0 (Windows NT 10.0; Win64; x64) AppleWebKit/537.36 (KHTML, like Gecko) Chrome/135.0.0.0 Safari/537.36" version="26.2.12">
  <diagram id="R2lEEEUBdFMjLlhIrx00" name="Page-1">
    <mxGraphModel dx="870" dy="478" grid="1" gridSize="10" guides="1" tooltips="1" connect="1" arrows="1" fold="1" page="1" pageScale="1" pageWidth="850" pageHeight="1100" math="0" shadow="0" extFonts="Permanent Marker^https://fonts.googleapis.com/css?family=Permanent+Marker">
      <root>
        <mxCell id="0" />
        <mxCell id="1" parent="0" />
        <mxCell id="W7bKbw9hJaZCdWT7t-Br-3" value="PRODUCTO" style="whiteSpace=wrap;html=1;align=center;" vertex="1" parent="1">
          <mxGeometry x="195" y="220" width="100" height="40" as="geometry" />
        </mxCell>
        <mxCell id="W7bKbw9hJaZCdWT7t-Br-32" style="edgeStyle=orthogonalEdgeStyle;shape=connector;rounded=0;orthogonalLoop=1;jettySize=auto;html=1;exitX=0.5;exitY=1;exitDx=0;exitDy=0;entryX=0;entryY=0.5;entryDx=0;entryDy=0;strokeColor=default;align=center;verticalAlign=middle;fontFamily=Helvetica;fontSize=11;fontColor=default;labelBackgroundColor=default;startFill=0;endArrow=none;" edge="1" parent="1" source="W7bKbw9hJaZCdWT7t-Br-4" target="W7bKbw9hJaZCdWT7t-Br-30">
          <mxGeometry relative="1" as="geometry" />
        </mxCell>
        <mxCell id="W7bKbw9hJaZCdWT7t-Br-4" value="CLIENTE" style="whiteSpace=wrap;html=1;align=center;" vertex="1" parent="1">
          <mxGeometry x="205" y="405" width="100" height="40" as="geometry" />
        </mxCell>
        <mxCell id="W7bKbw9hJaZCdWT7t-Br-5" value="VENTA" style="whiteSpace=wrap;html=1;align=center;" vertex="1" parent="1">
          <mxGeometry x="365" y="310" width="100" height="40" as="geometry" />
        </mxCell>
        <mxCell id="W7bKbw9hJaZCdWT7t-Br-7" value="UTILES" style="whiteSpace=wrap;html=1;align=center;" vertex="1" parent="1">
          <mxGeometry x="560" y="205" width="100" height="40" as="geometry" />
        </mxCell>
        <mxCell id="W7bKbw9hJaZCdWT7t-Br-8" value="PELUQUERA" style="whiteSpace=wrap;html=1;align=center;" vertex="1" parent="1">
          <mxGeometry x="560" y="320" width="100" height="40" as="geometry" />
        </mxCell>
        <mxCell id="W7bKbw9hJaZCdWT7t-Br-36" style="edgeStyle=orthogonalEdgeStyle;shape=connector;rounded=0;orthogonalLoop=1;jettySize=auto;html=1;exitX=1;exitY=0.5;exitDx=0;exitDy=0;entryX=0;entryY=0.5;entryDx=0;entryDy=0;strokeColor=default;align=center;verticalAlign=middle;fontFamily=Helvetica;fontSize=11;fontColor=default;labelBackgroundColor=default;startFill=0;endArrow=none;" edge="1" parent="1" source="W7bKbw9hJaZCdWT7t-Br-9" target="W7bKbw9hJaZCdWT7t-Br-34">
          <mxGeometry relative="1" as="geometry" />
        </mxCell>
        <mxCell id="W7bKbw9hJaZCdWT7t-Br-9" value="SERVICIO" style="shape=ext;margin=3;double=1;whiteSpace=wrap;html=1;align=center;" vertex="1" parent="1">
          <mxGeometry x="365" y="140" width="100" height="40" as="geometry" />
        </mxCell>
        <mxCell id="W7bKbw9hJaZCdWT7t-Br-11" style="edgeStyle=orthogonalEdgeStyle;rounded=0;orthogonalLoop=1;jettySize=auto;html=1;exitX=0.5;exitY=1;exitDx=0;exitDy=0;entryX=0.5;entryY=0;entryDx=0;entryDy=0;strokeColor=default;endArrow=none;startFill=0;" edge="1" parent="1" source="W7bKbw9hJaZCdWT7t-Br-10" target="W7bKbw9hJaZCdWT7t-Br-3">
          <mxGeometry relative="1" as="geometry" />
        </mxCell>
        <mxCell id="W7bKbw9hJaZCdWT7t-Br-12" style="edgeStyle=orthogonalEdgeStyle;shape=connector;rounded=0;orthogonalLoop=1;jettySize=auto;html=1;exitX=1;exitY=0.5;exitDx=0;exitDy=0;entryX=0;entryY=0.5;entryDx=0;entryDy=0;strokeColor=default;align=center;verticalAlign=middle;fontFamily=Helvetica;fontSize=11;fontColor=default;labelBackgroundColor=default;startFill=0;endArrow=none;" edge="1" parent="1" source="W7bKbw9hJaZCdWT7t-Br-10" target="W7bKbw9hJaZCdWT7t-Br-9">
          <mxGeometry relative="1" as="geometry" />
        </mxCell>
        <mxCell id="W7bKbw9hJaZCdWT7t-Br-10" value="Utiliza" style="shape=rhombus;perimeter=rhombusPerimeter;whiteSpace=wrap;html=1;align=center;fillStyle=auto;perimeterSpacing=0;strokeWidth=1;rounded=0;shadow=0;gradientColor=none;fillColor=none;" vertex="1" parent="1">
          <mxGeometry x="185" y="130" width="120" height="60" as="geometry" />
        </mxCell>
        <mxCell id="W7bKbw9hJaZCdWT7t-Br-21" style="edgeStyle=orthogonalEdgeStyle;shape=connector;rounded=0;orthogonalLoop=1;jettySize=auto;html=1;exitX=1;exitY=0.5;exitDx=0;exitDy=0;entryX=0;entryY=0.5;entryDx=0;entryDy=0;strokeColor=default;align=center;verticalAlign=middle;fontFamily=Helvetica;fontSize=11;fontColor=default;labelBackgroundColor=default;startFill=0;endArrow=none;" edge="1" parent="1" source="W7bKbw9hJaZCdWT7t-Br-13" target="W7bKbw9hJaZCdWT7t-Br-3">
          <mxGeometry relative="1" as="geometry" />
        </mxCell>
        <mxCell id="W7bKbw9hJaZCdWT7t-Br-13" value="Tipo" style="ellipse;whiteSpace=wrap;html=1;align=center;fontFamily=Helvetica;fontSize=11;fontColor=default;labelBackgroundColor=default;" vertex="1" parent="1">
          <mxGeometry y="170" width="100" height="40" as="geometry" />
        </mxCell>
        <mxCell id="W7bKbw9hJaZCdWT7t-Br-19" style="edgeStyle=orthogonalEdgeStyle;shape=connector;rounded=0;orthogonalLoop=1;jettySize=auto;html=1;exitX=1;exitY=0.5;exitDx=0;exitDy=0;entryX=0;entryY=0.5;entryDx=0;entryDy=0;strokeColor=default;align=center;verticalAlign=middle;fontFamily=Helvetica;fontSize=11;fontColor=default;labelBackgroundColor=default;startFill=0;endArrow=none;" edge="1" parent="1" source="W7bKbw9hJaZCdWT7t-Br-14" target="W7bKbw9hJaZCdWT7t-Br-3">
          <mxGeometry relative="1" as="geometry" />
        </mxCell>
        <mxCell id="W7bKbw9hJaZCdWT7t-Br-14" value="Nombre" style="ellipse;whiteSpace=wrap;html=1;align=center;fontFamily=Helvetica;fontSize=11;fontColor=default;labelBackgroundColor=default;" vertex="1" parent="1">
          <mxGeometry y="120" width="100" height="40" as="geometry" />
        </mxCell>
        <mxCell id="W7bKbw9hJaZCdWT7t-Br-16" style="edgeStyle=orthogonalEdgeStyle;shape=connector;rounded=0;orthogonalLoop=1;jettySize=auto;html=1;exitX=0.5;exitY=1;exitDx=0;exitDy=0;strokeColor=default;align=center;verticalAlign=middle;fontFamily=Helvetica;fontSize=11;fontColor=default;labelBackgroundColor=default;startFill=0;endArrow=none;" edge="1" parent="1" source="W7bKbw9hJaZCdWT7t-Br-13" target="W7bKbw9hJaZCdWT7t-Br-13">
          <mxGeometry relative="1" as="geometry" />
        </mxCell>
        <mxCell id="W7bKbw9hJaZCdWT7t-Br-22" style="edgeStyle=orthogonalEdgeStyle;shape=connector;rounded=0;orthogonalLoop=1;jettySize=auto;html=1;exitX=1;exitY=0.5;exitDx=0;exitDy=0;entryX=0;entryY=0.5;entryDx=0;entryDy=0;strokeColor=default;align=center;verticalAlign=middle;fontFamily=Helvetica;fontSize=11;fontColor=default;labelBackgroundColor=default;startFill=0;endArrow=none;" edge="1" parent="1" source="W7bKbw9hJaZCdWT7t-Br-17" target="W7bKbw9hJaZCdWT7t-Br-3">
          <mxGeometry relative="1" as="geometry" />
        </mxCell>
        <mxCell id="W7bKbw9hJaZCdWT7t-Br-17" value="Precio_compra" style="ellipse;whiteSpace=wrap;html=1;align=center;fontFamily=Helvetica;fontSize=11;fontColor=default;labelBackgroundColor=default;" vertex="1" parent="1">
          <mxGeometry y="220" width="100" height="40" as="geometry" />
        </mxCell>
        <mxCell id="W7bKbw9hJaZCdWT7t-Br-24" style="edgeStyle=orthogonalEdgeStyle;shape=connector;rounded=0;orthogonalLoop=1;jettySize=auto;html=1;exitX=1;exitY=0.5;exitDx=0;exitDy=0;entryX=0;entryY=0.5;entryDx=0;entryDy=0;strokeColor=default;align=center;verticalAlign=middle;fontFamily=Helvetica;fontSize=11;fontColor=default;labelBackgroundColor=default;startFill=0;endArrow=none;" edge="1" parent="1" source="W7bKbw9hJaZCdWT7t-Br-18" target="W7bKbw9hJaZCdWT7t-Br-3">
          <mxGeometry relative="1" as="geometry" />
        </mxCell>
        <mxCell id="W7bKbw9hJaZCdWT7t-Br-18" value="Precio_venta" style="ellipse;whiteSpace=wrap;html=1;align=center;fontFamily=Helvetica;fontSize=11;fontColor=default;labelBackgroundColor=default;" vertex="1" parent="1">
          <mxGeometry y="270" width="100" height="40" as="geometry" />
        </mxCell>
        <mxCell id="W7bKbw9hJaZCdWT7t-Br-26" style="edgeStyle=orthogonalEdgeStyle;shape=connector;rounded=0;orthogonalLoop=1;jettySize=auto;html=1;exitX=0.5;exitY=0;exitDx=0;exitDy=0;entryX=1;entryY=0.5;entryDx=0;entryDy=0;strokeColor=default;align=center;verticalAlign=middle;fontFamily=Helvetica;fontSize=11;fontColor=default;labelBackgroundColor=default;startFill=0;endArrow=none;" edge="1" parent="1" source="W7bKbw9hJaZCdWT7t-Br-25" target="W7bKbw9hJaZCdWT7t-Br-7">
          <mxGeometry relative="1" as="geometry" />
        </mxCell>
        <mxCell id="W7bKbw9hJaZCdWT7t-Br-27" style="edgeStyle=orthogonalEdgeStyle;shape=connector;rounded=0;orthogonalLoop=1;jettySize=auto;html=1;exitX=0.5;exitY=1;exitDx=0;exitDy=0;entryX=1;entryY=0.5;entryDx=0;entryDy=0;strokeColor=default;align=center;verticalAlign=middle;fontFamily=Helvetica;fontSize=11;fontColor=default;labelBackgroundColor=default;startFill=0;endArrow=none;" edge="1" parent="1" source="W7bKbw9hJaZCdWT7t-Br-25" target="W7bKbw9hJaZCdWT7t-Br-8">
          <mxGeometry relative="1" as="geometry" />
        </mxCell>
        <mxCell id="W7bKbw9hJaZCdWT7t-Br-25" value="Utiliza" style="shape=rhombus;perimeter=rhombusPerimeter;whiteSpace=wrap;html=1;align=center;fontFamily=Helvetica;fontSize=11;fontColor=default;labelBackgroundColor=default;" vertex="1" parent="1">
          <mxGeometry x="690" y="250" width="120" height="60" as="geometry" />
        </mxCell>
        <mxCell id="W7bKbw9hJaZCdWT7t-Br-29" style="edgeStyle=orthogonalEdgeStyle;shape=connector;rounded=0;orthogonalLoop=1;jettySize=auto;html=1;exitX=0;exitY=0.5;exitDx=0;exitDy=0;entryX=0;entryY=0.5;entryDx=0;entryDy=0;strokeColor=default;align=center;verticalAlign=middle;fontFamily=Helvetica;fontSize=11;fontColor=default;labelBackgroundColor=default;startFill=0;endArrow=none;" edge="1" parent="1" source="W7bKbw9hJaZCdWT7t-Br-28" target="W7bKbw9hJaZCdWT7t-Br-4">
          <mxGeometry relative="1" as="geometry" />
        </mxCell>
        <mxCell id="W7bKbw9hJaZCdWT7t-Br-37" style="edgeStyle=orthogonalEdgeStyle;shape=connector;rounded=0;orthogonalLoop=1;jettySize=auto;html=1;exitX=0.5;exitY=0;exitDx=0;exitDy=0;strokeColor=default;align=center;verticalAlign=middle;fontFamily=Helvetica;fontSize=11;fontColor=default;labelBackgroundColor=default;startFill=0;endArrow=none;" edge="1" parent="1" source="W7bKbw9hJaZCdWT7t-Br-28">
          <mxGeometry relative="1" as="geometry">
            <mxPoint x="510" y="160" as="targetPoint" />
            <Array as="points">
              <mxPoint x="510" y="160" />
            </Array>
          </mxGeometry>
        </mxCell>
        <mxCell id="W7bKbw9hJaZCdWT7t-Br-28" value="Atiende" style="shape=rhombus;perimeter=rhombusPerimeter;whiteSpace=wrap;html=1;align=center;fontFamily=Helvetica;fontSize=11;fontColor=default;labelBackgroundColor=default;" vertex="1" parent="1">
          <mxGeometry x="450" y="505" width="120" height="60" as="geometry" />
        </mxCell>
        <mxCell id="W7bKbw9hJaZCdWT7t-Br-33" style="edgeStyle=orthogonalEdgeStyle;shape=connector;rounded=0;orthogonalLoop=1;jettySize=auto;html=1;exitX=1;exitY=0.5;exitDx=0;exitDy=0;entryX=0.5;entryY=1;entryDx=0;entryDy=0;strokeColor=default;align=center;verticalAlign=middle;fontFamily=Helvetica;fontSize=11;fontColor=default;labelBackgroundColor=default;startFill=0;endArrow=none;" edge="1" parent="1" source="W7bKbw9hJaZCdWT7t-Br-30" target="W7bKbw9hJaZCdWT7t-Br-5">
          <mxGeometry relative="1" as="geometry" />
        </mxCell>
        <mxCell id="W7bKbw9hJaZCdWT7t-Br-30" value="Paga" style="shape=rhombus;perimeter=rhombusPerimeter;whiteSpace=wrap;html=1;align=center;fontFamily=Helvetica;fontSize=11;fontColor=default;labelBackgroundColor=default;" vertex="1" parent="1">
          <mxGeometry x="275" y="450" width="120" height="60" as="geometry" />
        </mxCell>
        <mxCell id="W7bKbw9hJaZCdWT7t-Br-35" style="edgeStyle=orthogonalEdgeStyle;shape=connector;rounded=0;orthogonalLoop=1;jettySize=auto;html=1;exitX=0.5;exitY=1;exitDx=0;exitDy=0;entryX=0.5;entryY=0;entryDx=0;entryDy=0;strokeColor=default;align=center;verticalAlign=middle;fontFamily=Helvetica;fontSize=11;fontColor=default;labelBackgroundColor=default;startFill=0;endArrow=none;" edge="1" parent="1" source="W7bKbw9hJaZCdWT7t-Br-34" target="W7bKbw9hJaZCdWT7t-Br-7">
          <mxGeometry relative="1" as="geometry" />
        </mxCell>
        <mxCell id="W7bKbw9hJaZCdWT7t-Br-34" value="Utiliza" style="shape=rhombus;perimeter=rhombusPerimeter;whiteSpace=wrap;html=1;align=center;fontFamily=Helvetica;fontSize=11;fontColor=default;labelBackgroundColor=default;" vertex="1" parent="1">
          <mxGeometry x="550" y="130" width="120" height="60" as="geometry" />
        </mxCell>
        <mxCell id="W7bKbw9hJaZCdWT7t-Br-39" value="" style="edgeStyle=orthogonalEdgeStyle;shape=connector;rounded=0;orthogonalLoop=1;jettySize=auto;html=1;strokeColor=default;align=center;verticalAlign=middle;fontFamily=Helvetica;fontSize=11;fontColor=default;labelBackgroundColor=default;startFill=0;endArrow=none;" edge="1" parent="1" source="W7bKbw9hJaZCdWT7t-Br-38" target="W7bKbw9hJaZCdWT7t-Br-5">
          <mxGeometry relative="1" as="geometry" />
        </mxCell>
        <mxCell id="W7bKbw9hJaZCdWT7t-Br-40" style="edgeStyle=orthogonalEdgeStyle;shape=connector;rounded=0;orthogonalLoop=1;jettySize=auto;html=1;exitX=0;exitY=0.5;exitDx=0;exitDy=0;entryX=1;entryY=0.5;entryDx=0;entryDy=0;strokeColor=default;align=center;verticalAlign=middle;fontFamily=Helvetica;fontSize=11;fontColor=default;labelBackgroundColor=default;startFill=0;endArrow=none;" edge="1" parent="1" source="W7bKbw9hJaZCdWT7t-Br-38" target="W7bKbw9hJaZCdWT7t-Br-3">
          <mxGeometry relative="1" as="geometry" />
        </mxCell>
        <mxCell id="W7bKbw9hJaZCdWT7t-Br-41" style="edgeStyle=orthogonalEdgeStyle;shape=connector;rounded=0;orthogonalLoop=1;jettySize=auto;html=1;exitX=0.5;exitY=0;exitDx=0;exitDy=0;entryX=0.5;entryY=1;entryDx=0;entryDy=0;strokeColor=default;align=center;verticalAlign=middle;fontFamily=Helvetica;fontSize=11;fontColor=default;labelBackgroundColor=default;startFill=0;endArrow=none;" edge="1" parent="1" source="W7bKbw9hJaZCdWT7t-Br-38" target="W7bKbw9hJaZCdWT7t-Br-9">
          <mxGeometry relative="1" as="geometry" />
        </mxCell>
        <mxCell id="W7bKbw9hJaZCdWT7t-Br-38" value="Conforma" style="shape=rhombus;perimeter=rhombusPerimeter;whiteSpace=wrap;html=1;align=center;fontFamily=Helvetica;fontSize=11;fontColor=default;labelBackgroundColor=default;" vertex="1" parent="1">
          <mxGeometry x="355" y="210" width="120" height="60" as="geometry" />
        </mxCell>
        <mxCell id="W7bKbw9hJaZCdWT7t-Br-44" style="edgeStyle=orthogonalEdgeStyle;shape=connector;rounded=0;orthogonalLoop=1;jettySize=auto;html=1;exitX=1;exitY=0.5;exitDx=0;exitDy=0;entryX=0;entryY=0.5;entryDx=0;entryDy=0;strokeColor=default;align=center;verticalAlign=middle;fontFamily=Helvetica;fontSize=11;fontColor=default;labelBackgroundColor=default;startFill=0;endArrow=none;" edge="1" parent="1" source="W7bKbw9hJaZCdWT7t-Br-42" target="W7bKbw9hJaZCdWT7t-Br-3">
          <mxGeometry relative="1" as="geometry" />
        </mxCell>
        <mxCell id="W7bKbw9hJaZCdWT7t-Br-42" value="Cantidad" style="ellipse;whiteSpace=wrap;html=1;align=center;fontStyle=0;fontFamily=Helvetica;fontSize=11;fontColor=default;labelBackgroundColor=default;" vertex="1" parent="1">
          <mxGeometry y="320" width="100" height="40" as="geometry" />
        </mxCell>
        <mxCell id="W7bKbw9hJaZCdWT7t-Br-50" style="edgeStyle=orthogonalEdgeStyle;shape=connector;rounded=0;orthogonalLoop=1;jettySize=auto;html=1;exitX=1;exitY=0.5;exitDx=0;exitDy=0;entryX=0;entryY=0.25;entryDx=0;entryDy=0;strokeColor=default;align=center;verticalAlign=middle;fontFamily=Helvetica;fontSize=11;fontColor=default;labelBackgroundColor=default;startFill=0;endArrow=none;" edge="1" parent="1" source="W7bKbw9hJaZCdWT7t-Br-45" target="W7bKbw9hJaZCdWT7t-Br-4">
          <mxGeometry relative="1" as="geometry" />
        </mxCell>
        <mxCell id="W7bKbw9hJaZCdWT7t-Br-45" value="Rut" style="ellipse;whiteSpace=wrap;html=1;align=center;fontFamily=Helvetica;fontSize=11;fontColor=default;labelBackgroundColor=default;" vertex="1" parent="1">
          <mxGeometry y="395" width="100" height="40" as="geometry" />
        </mxCell>
        <mxCell id="W7bKbw9hJaZCdWT7t-Br-46" style="edgeStyle=orthogonalEdgeStyle;shape=connector;rounded=0;orthogonalLoop=1;jettySize=auto;html=1;exitX=0.5;exitY=1;exitDx=0;exitDy=0;strokeColor=default;align=center;verticalAlign=middle;fontFamily=Helvetica;fontSize=11;fontColor=default;labelBackgroundColor=default;startFill=0;endArrow=none;" edge="1" parent="1" source="W7bKbw9hJaZCdWT7t-Br-45" target="W7bKbw9hJaZCdWT7t-Br-45">
          <mxGeometry relative="1" as="geometry" />
        </mxCell>
        <mxCell id="W7bKbw9hJaZCdWT7t-Br-51" style="edgeStyle=orthogonalEdgeStyle;shape=connector;rounded=0;orthogonalLoop=1;jettySize=auto;html=1;exitX=1;exitY=0.5;exitDx=0;exitDy=0;strokeColor=default;align=center;verticalAlign=middle;fontFamily=Helvetica;fontSize=11;fontColor=default;labelBackgroundColor=default;startFill=0;endArrow=none;entryX=0;entryY=0.25;entryDx=0;entryDy=0;" edge="1" parent="1" source="W7bKbw9hJaZCdWT7t-Br-47" target="W7bKbw9hJaZCdWT7t-Br-4">
          <mxGeometry relative="1" as="geometry">
            <mxPoint x="155" y="460" as="targetPoint" />
          </mxGeometry>
        </mxCell>
        <mxCell id="W7bKbw9hJaZCdWT7t-Br-47" value="Nombre" style="ellipse;whiteSpace=wrap;html=1;align=center;fontFamily=Helvetica;fontSize=11;fontColor=default;labelBackgroundColor=default;" vertex="1" parent="1">
          <mxGeometry y="445" width="100" height="40" as="geometry" />
        </mxCell>
        <mxCell id="W7bKbw9hJaZCdWT7t-Br-52" style="edgeStyle=orthogonalEdgeStyle;shape=connector;rounded=0;orthogonalLoop=1;jettySize=auto;html=1;exitX=1;exitY=0.5;exitDx=0;exitDy=0;strokeColor=default;align=center;verticalAlign=middle;fontFamily=Helvetica;fontSize=11;fontColor=default;labelBackgroundColor=default;startFill=0;endArrow=none;entryX=0;entryY=0.25;entryDx=0;entryDy=0;" edge="1" parent="1" source="W7bKbw9hJaZCdWT7t-Br-48" target="W7bKbw9hJaZCdWT7t-Br-4">
          <mxGeometry relative="1" as="geometry">
            <mxPoint x="145" y="520.0000000000001" as="targetPoint" />
          </mxGeometry>
        </mxCell>
        <mxCell id="W7bKbw9hJaZCdWT7t-Br-48" value="Direccion" style="ellipse;whiteSpace=wrap;html=1;align=center;fontFamily=Helvetica;fontSize=11;fontColor=default;labelBackgroundColor=default;" vertex="1" parent="1">
          <mxGeometry y="495" width="100" height="40" as="geometry" />
        </mxCell>
        <mxCell id="W7bKbw9hJaZCdWT7t-Br-53" style="edgeStyle=orthogonalEdgeStyle;shape=connector;rounded=0;orthogonalLoop=1;jettySize=auto;html=1;exitX=1;exitY=0.5;exitDx=0;exitDy=0;entryX=0;entryY=0.25;entryDx=0;entryDy=0;strokeColor=default;align=center;verticalAlign=middle;fontFamily=Helvetica;fontSize=11;fontColor=default;labelBackgroundColor=default;startFill=0;endArrow=none;" edge="1" parent="1" source="W7bKbw9hJaZCdWT7t-Br-49" target="W7bKbw9hJaZCdWT7t-Br-4">
          <mxGeometry relative="1" as="geometry" />
        </mxCell>
        <mxCell id="W7bKbw9hJaZCdWT7t-Br-49" value="Telefono" style="ellipse;whiteSpace=wrap;html=1;align=center;fontStyle=4;fontFamily=Helvetica;fontSize=11;fontColor=default;labelBackgroundColor=default;" vertex="1" parent="1">
          <mxGeometry y="545" width="100" height="40" as="geometry" />
        </mxCell>
        <mxCell id="W7bKbw9hJaZCdWT7t-Br-63" style="edgeStyle=orthogonalEdgeStyle;shape=connector;rounded=0;orthogonalLoop=1;jettySize=auto;html=1;exitX=1;exitY=0.5;exitDx=0;exitDy=0;entryX=0;entryY=0.5;entryDx=0;entryDy=0;strokeColor=default;align=center;verticalAlign=middle;fontFamily=Helvetica;fontSize=11;fontColor=default;labelBackgroundColor=default;startFill=0;endArrow=none;" edge="1" parent="1" source="W7bKbw9hJaZCdWT7t-Br-54" target="W7bKbw9hJaZCdWT7t-Br-5">
          <mxGeometry relative="1" as="geometry" />
        </mxCell>
        <mxCell id="W7bKbw9hJaZCdWT7t-Br-54" value="N° transaccion" style="ellipse;whiteSpace=wrap;html=1;align=center;fontFamily=Helvetica;fontSize=11;fontColor=default;labelBackgroundColor=default;" vertex="1" parent="1">
          <mxGeometry x="195" y="280" width="100" height="30" as="geometry" />
        </mxCell>
        <mxCell id="W7bKbw9hJaZCdWT7t-Br-65" style="edgeStyle=orthogonalEdgeStyle;shape=connector;rounded=0;orthogonalLoop=1;jettySize=auto;html=1;exitX=1;exitY=0.5;exitDx=0;exitDy=0;entryX=0;entryY=0.5;entryDx=0;entryDy=0;strokeColor=default;align=center;verticalAlign=middle;fontFamily=Helvetica;fontSize=11;fontColor=default;labelBackgroundColor=default;startFill=0;endArrow=none;" edge="1" parent="1" source="W7bKbw9hJaZCdWT7t-Br-60" target="W7bKbw9hJaZCdWT7t-Br-5">
          <mxGeometry relative="1" as="geometry" />
        </mxCell>
        <mxCell id="W7bKbw9hJaZCdWT7t-Br-60" value="Producto_servicio" style="ellipse;whiteSpace=wrap;html=1;align=center;fontFamily=Helvetica;fontSize=11;fontColor=default;labelBackgroundColor=default;" vertex="1" parent="1">
          <mxGeometry x="195" y="315" width="100" height="30" as="geometry" />
        </mxCell>
        <mxCell id="W7bKbw9hJaZCdWT7t-Br-66" style="edgeStyle=orthogonalEdgeStyle;shape=connector;rounded=0;orthogonalLoop=1;jettySize=auto;html=1;exitX=1;exitY=0.5;exitDx=0;exitDy=0;strokeColor=default;align=center;verticalAlign=middle;fontFamily=Helvetica;fontSize=11;fontColor=default;labelBackgroundColor=default;startFill=0;endArrow=none;entryX=0;entryY=0.5;entryDx=0;entryDy=0;" edge="1" parent="1" source="W7bKbw9hJaZCdWT7t-Br-62" target="W7bKbw9hJaZCdWT7t-Br-5">
          <mxGeometry relative="1" as="geometry">
            <mxPoint x="350" y="360" as="targetPoint" />
          </mxGeometry>
        </mxCell>
        <mxCell id="W7bKbw9hJaZCdWT7t-Br-62" value="Total" style="ellipse;whiteSpace=wrap;html=1;align=center;fontFamily=Helvetica;fontSize=11;fontColor=default;labelBackgroundColor=default;" vertex="1" parent="1">
          <mxGeometry x="195" y="350" width="100" height="30" as="geometry" />
        </mxCell>
        <mxCell id="W7bKbw9hJaZCdWT7t-Br-73" style="edgeStyle=orthogonalEdgeStyle;shape=connector;rounded=0;orthogonalLoop=1;jettySize=auto;html=1;exitX=0;exitY=0.5;exitDx=0;exitDy=0;entryX=0.5;entryY=1;entryDx=0;entryDy=0;strokeColor=default;align=center;verticalAlign=middle;fontFamily=Helvetica;fontSize=11;fontColor=default;labelBackgroundColor=default;startFill=0;endArrow=none;" edge="1" parent="1" source="W7bKbw9hJaZCdWT7t-Br-68" target="W7bKbw9hJaZCdWT7t-Br-8">
          <mxGeometry relative="1" as="geometry" />
        </mxCell>
        <mxCell id="W7bKbw9hJaZCdWT7t-Br-68" value="Rut" style="ellipse;whiteSpace=wrap;html=1;align=center;fontStyle=0;fontFamily=Helvetica;fontSize=11;fontColor=default;labelBackgroundColor=default;" vertex="1" parent="1">
          <mxGeometry x="680" y="370" width="100" height="40" as="geometry" />
        </mxCell>
        <mxCell id="W7bKbw9hJaZCdWT7t-Br-74" style="edgeStyle=orthogonalEdgeStyle;shape=connector;rounded=0;orthogonalLoop=1;jettySize=auto;html=1;exitX=0;exitY=0.5;exitDx=0;exitDy=0;strokeColor=default;align=center;verticalAlign=middle;fontFamily=Helvetica;fontSize=11;fontColor=default;labelBackgroundColor=default;startFill=0;endArrow=none;" edge="1" parent="1" source="W7bKbw9hJaZCdWT7t-Br-69">
          <mxGeometry relative="1" as="geometry">
            <mxPoint x="610" y="370" as="targetPoint" />
          </mxGeometry>
        </mxCell>
        <mxCell id="W7bKbw9hJaZCdWT7t-Br-69" value="Nombre" style="ellipse;whiteSpace=wrap;html=1;align=center;fontStyle=0;fontFamily=Helvetica;fontSize=11;fontColor=default;labelBackgroundColor=default;" vertex="1" parent="1">
          <mxGeometry x="680" y="420" width="100" height="40" as="geometry" />
        </mxCell>
        <mxCell id="W7bKbw9hJaZCdWT7t-Br-75" style="edgeStyle=orthogonalEdgeStyle;shape=connector;rounded=0;orthogonalLoop=1;jettySize=auto;html=1;exitX=0;exitY=0.5;exitDx=0;exitDy=0;entryX=0.5;entryY=1;entryDx=0;entryDy=0;strokeColor=default;align=center;verticalAlign=middle;fontFamily=Helvetica;fontSize=11;fontColor=default;labelBackgroundColor=default;startFill=0;endArrow=none;" edge="1" parent="1" source="W7bKbw9hJaZCdWT7t-Br-70" target="W7bKbw9hJaZCdWT7t-Br-8">
          <mxGeometry relative="1" as="geometry" />
        </mxCell>
        <mxCell id="W7bKbw9hJaZCdWT7t-Br-70" value="Cuenta" style="ellipse;whiteSpace=wrap;html=1;align=center;fontStyle=0;fontFamily=Helvetica;fontSize=11;fontColor=default;labelBackgroundColor=default;" vertex="1" parent="1">
          <mxGeometry x="680" y="470" width="100" height="40" as="geometry" />
        </mxCell>
        <mxCell id="W7bKbw9hJaZCdWT7t-Br-76" style="edgeStyle=orthogonalEdgeStyle;shape=connector;rounded=0;orthogonalLoop=1;jettySize=auto;html=1;exitX=0;exitY=0.5;exitDx=0;exitDy=0;strokeColor=default;align=center;verticalAlign=middle;fontFamily=Helvetica;fontSize=11;fontColor=default;labelBackgroundColor=default;startFill=0;endArrow=none;" edge="1" parent="1" source="W7bKbw9hJaZCdWT7t-Br-71">
          <mxGeometry relative="1" as="geometry">
            <mxPoint x="610" y="360" as="targetPoint" />
          </mxGeometry>
        </mxCell>
        <mxCell id="W7bKbw9hJaZCdWT7t-Br-71" value="Tipo_cuenta" style="ellipse;whiteSpace=wrap;html=1;align=center;fontStyle=0;fontFamily=Helvetica;fontSize=11;fontColor=default;labelBackgroundColor=default;" vertex="1" parent="1">
          <mxGeometry x="680" y="515" width="100" height="40" as="geometry" />
        </mxCell>
        <mxCell id="W7bKbw9hJaZCdWT7t-Br-77" style="edgeStyle=orthogonalEdgeStyle;shape=connector;rounded=0;orthogonalLoop=1;jettySize=auto;html=1;exitX=0;exitY=0.5;exitDx=0;exitDy=0;strokeColor=default;align=center;verticalAlign=middle;fontFamily=Helvetica;fontSize=11;fontColor=default;labelBackgroundColor=default;startFill=0;endArrow=none;" edge="1" parent="1" source="W7bKbw9hJaZCdWT7t-Br-72">
          <mxGeometry relative="1" as="geometry">
            <mxPoint x="610" y="360" as="targetPoint" />
          </mxGeometry>
        </mxCell>
        <mxCell id="W7bKbw9hJaZCdWT7t-Br-72" value="Telefono" style="ellipse;whiteSpace=wrap;html=1;align=center;fontStyle=0;fontFamily=Helvetica;fontSize=11;fontColor=default;labelBackgroundColor=default;" vertex="1" parent="1">
          <mxGeometry x="680" y="565" width="100" height="40" as="geometry" />
        </mxCell>
        <mxCell id="W7bKbw9hJaZCdWT7t-Br-82" style="edgeStyle=orthogonalEdgeStyle;shape=connector;rounded=0;orthogonalLoop=1;jettySize=auto;html=1;exitX=0;exitY=0.5;exitDx=0;exitDy=0;entryX=1;entryY=0.25;entryDx=0;entryDy=0;strokeColor=default;align=center;verticalAlign=middle;fontFamily=Helvetica;fontSize=11;fontColor=default;labelBackgroundColor=default;startFill=0;endArrow=none;" edge="1" parent="1" source="W7bKbw9hJaZCdWT7t-Br-81" target="W7bKbw9hJaZCdWT7t-Br-7">
          <mxGeometry relative="1" as="geometry" />
        </mxCell>
        <mxCell id="W7bKbw9hJaZCdWT7t-Br-81" value="Nombre" style="ellipse;whiteSpace=wrap;html=1;align=center;fontStyle=0;fontFamily=Helvetica;fontSize=11;fontColor=default;labelBackgroundColor=default;" vertex="1" parent="1">
          <mxGeometry x="720" y="120" width="100" height="40" as="geometry" />
        </mxCell>
        <mxCell id="W7bKbw9hJaZCdWT7t-Br-85" style="edgeStyle=orthogonalEdgeStyle;shape=connector;rounded=0;orthogonalLoop=1;jettySize=auto;html=1;exitX=0;exitY=0.5;exitDx=0;exitDy=0;entryX=1;entryY=0.25;entryDx=0;entryDy=0;strokeColor=default;align=center;verticalAlign=middle;fontFamily=Helvetica;fontSize=11;fontColor=default;labelBackgroundColor=default;startFill=0;endArrow=none;" edge="1" parent="1" source="W7bKbw9hJaZCdWT7t-Br-83" target="W7bKbw9hJaZCdWT7t-Br-7">
          <mxGeometry relative="1" as="geometry" />
        </mxCell>
        <mxCell id="W7bKbw9hJaZCdWT7t-Br-83" value="Tipo" style="ellipse;whiteSpace=wrap;html=1;align=center;fontFamily=Helvetica;fontSize=11;fontColor=default;labelBackgroundColor=default;" vertex="1" parent="1">
          <mxGeometry x="720" y="165" width="100" height="40" as="geometry" />
        </mxCell>
        <mxCell id="W7bKbw9hJaZCdWT7t-Br-89" value="" style="edgeStyle=orthogonalEdgeStyle;shape=connector;rounded=0;orthogonalLoop=1;jettySize=auto;html=1;strokeColor=default;align=center;verticalAlign=middle;fontFamily=Helvetica;fontSize=11;fontColor=default;labelBackgroundColor=default;startFill=0;endArrow=none;" edge="1" parent="1" source="W7bKbw9hJaZCdWT7t-Br-86" target="W7bKbw9hJaZCdWT7t-Br-10">
          <mxGeometry relative="1" as="geometry" />
        </mxCell>
        <mxCell id="W7bKbw9hJaZCdWT7t-Br-86" value="Nombre" style="ellipse;whiteSpace=wrap;html=1;align=center;fontStyle=0;fontFamily=Helvetica;fontSize=11;fontColor=default;labelBackgroundColor=default;" vertex="1" parent="1">
          <mxGeometry x="140" y="40" width="100" height="40" as="geometry" />
        </mxCell>
        <mxCell id="W7bKbw9hJaZCdWT7t-Br-88" value="" style="edgeStyle=orthogonalEdgeStyle;shape=connector;rounded=0;orthogonalLoop=1;jettySize=auto;html=1;strokeColor=default;align=center;verticalAlign=middle;fontFamily=Helvetica;fontSize=11;fontColor=default;labelBackgroundColor=default;startFill=0;endArrow=none;" edge="1" parent="1" source="W7bKbw9hJaZCdWT7t-Br-87" target="W7bKbw9hJaZCdWT7t-Br-10">
          <mxGeometry relative="1" as="geometry" />
        </mxCell>
        <mxCell id="W7bKbw9hJaZCdWT7t-Br-87" value="Precio" style="ellipse;whiteSpace=wrap;html=1;align=center;fontStyle=0;fontFamily=Helvetica;fontSize=11;fontColor=default;labelBackgroundColor=default;" vertex="1" parent="1">
          <mxGeometry x="250" y="40" width="100" height="40" as="geometry" />
        </mxCell>
      </root>
    </mxGraphModel>
  </diagram>
</mxfile>
